<?xml version="1.0" encoding="UTF-8"?>
<svg width="26px" height="23px" viewBox="0 0 26 23" version="1.1" xmlns="http://www.w3.org/2000/svg" xmlns:xlink="http://www.w3.org/1999/xlink">
    <!-- Generator: sketchtool 51.3 (57544) - http://www.bohemiancoding.com/sketch -->
    <title>2E002BF8-9517-4DB1-AD88-36F8318BDDC8</title>
    <desc>Created with sketchtool.</desc>
    <defs></defs>
    <g id="style-guide" stroke="none" stroke-width="1" fill="none" fill-rule="evenodd">
        <g id="icons" transform="translate(-25.000000, -473.000000)">
            <g id="tw_ico" transform="translate(25.000000, 471.000000)">
                <rect id="Background" x="0" y="0" width="26" height="26"></rect>
                <path d="M17.8008028,2.8486328 C14.6910396,2.8486328 12.1600231,5.3795693 12.1600231,8.48839833 C12.1600231,8.67697724 12.204832,8.85442095 12.2229923,9.03886726 C8.37751951,8.67225418 4.97135509,6.80960994 2.66088365,3.97597657 C2.55303119,3.84389646 2.38727954,3.77308117 2.21728386,3.78645389 C2.04728803,3.79982662 1.89464812,3.89568834 1.80877441,4.04300806 C1.3231952,4.87788376 1.04502458,5.84957615 1.04502458,6.88066406 C1.04502458,8.13654789 1.487975,9.27595884 2.18455586,10.2159768 C2.04967059,10.1569927 1.90423087,10.1184904 1.77627459,10.0473824 C1.61527636,9.95780959 1.41890251,9.96010448 1.26004216,10.0534171 C1.10118199,10.146729 1.00354976,10.3171283 1.00338407,10.5013661 L1.00338407,10.566367 C1.00338407,12.4871835 1.99706192,14.1506023 3.46728983,15.1701951 C3.45004119,15.1670743 3.43169085,15.1684454 3.41447757,15.1651174 C3.23424038,15.1305973 3.04915279,15.1936249 2.92744052,15.330968 C2.80572845,15.4683108 2.76541167,15.6596356 2.82135249,15.834414 C3.40379156,17.6456736 4.89519804,19.0119379 6.74064966,19.5109755 C5.2757303,20.3847076 3.57593447,20.9033984 1.74174325,20.9033984 C1.34644176,20.9033984 0.960488378,20.8810124 0.582915315,20.8353512 C0.341693343,20.8055401 0.111994166,20.9467907 0.0297521309,21.1755098 C-0.0524898961,21.4042302 0.0346629491,21.6594125 0.239634169,21.7900379 C2.58505423,23.2949623 5.37637987,24.1726948 8.36971139,24.1726948 C13.2229539,24.1726948 17.0239993,22.1470633 19.5781465,19.2499605 C22.1322953,16.3528585 23.4608811,12.5989254 23.4608811,9.08457027 C23.4608811,8.93783236 23.4559417,8.79485111 23.4517398,8.65089877 C24.4034573,7.92316142 25.2467321,7.05605874 25.9125989,6.05902322 C26.0419403,5.86646864 26.0281203,5.61153628 25.8787184,5.43409429 C25.7293191,5.25665186 25.480465,5.19960722 25.2686933,5.29425727 C25.0012858,5.41283654 24.6913948,5.43451126 24.4125205,5.52886652 C24.7796506,5.03669374 25.0946068,4.49984064 25.2859583,3.9018359 C25.3515396,3.69615302 25.2832248,3.47134185 25.1142939,3.33692006 C24.945365,3.20249851 24.7109535,3.18642234 24.5252555,3.2965234 C23.6399184,3.82084061 22.659058,4.19646185 21.6236159,4.42183584 C20.6143884,3.47437731 19.2902079,2.8486328 17.8008028,2.8486328 Z M17.8008344,3.8886328 C19.1273161,3.8886328 20.3199849,4.44594703 21.15849,5.34097643 C21.2810477,5.47153429 21.462155,5.5298563 21.6378666,5.49535131 C22.3145268,5.36225247 22.9621989,5.15401615 23.5878653,4.90121078 C23.2261695,5.38827005 22.79319,5.81783557 22.2706002,6.13113253 C22.0606919,6.25764375 21.9675993,6.5135401 22.0471551,6.74535366 C22.1267121,6.97716683 22.3573199,7.12197377 22.6006777,7.09292948 C23.1199976,7.03016344 23.5823837,6.82010163 24.0763806,6.68769499 C23.6319458,7.16918599 23.1525327,7.61667774 22.6220053,7.99988259 C22.480171,8.10220826 22.3992693,8.2689744 22.4066935,8.44371046 C22.4157935,8.65553175 22.4209109,8.87037879 22.4209109,9.08456999 C22.4209109,12.334895 21.1749301,15.8654782 18.7981776,18.5613658 C16.4214262,21.2572533 12.9357785,23.1326928 8.36974057,23.1326928 C6.29829985,23.1326928 4.33747022,22.6789131 2.56950674,21.8733192 C4.76364587,21.705486 6.78807595,20.9228628 8.42153784,19.6419916 C8.59469315,19.5063017 8.66374064,19.276341 8.59396875,19.0677103 C8.52419819,18.8590811 8.33070266,18.7169187 8.1107564,18.712694 C6.39856314,18.6813012 4.96272543,17.6881287 4.19552223,16.2802725 C4.22497843,16.2807394 4.25226131,16.2883966 4.28185042,16.2883966 C4.7947493,16.2883966 5.29373735,16.219907 5.7677096,16.0893347 C5.99919823,16.0248748 6.15638278,15.8102094 6.14793547,15.570062 C6.13948794,15.3299135 5.96760922,15.1268232 5.73216348,15.0787875 C3.88241988,14.7053025 2.50041001,13.2024884 2.17849113,11.3301164 C2.70164237,11.5114301 3.24689091,11.643923 3.82685052,11.6622256 C4.05837323,11.6688435 4.26636699,11.5215498 4.33699213,11.3009628 C4.40761772,11.0803759 4.32385055,10.8396689 4.13153816,10.7105855 C2.89571476,9.88452189 2.08505364,8.48090961 2.08505364,6.88066365 C2.08505364,6.28511972 2.23050299,5.73442893 2.43544422,5.21300766 C5.0349322,8.06976316 8.67283405,9.96825049 12.7866935,10.1753506 C12.9499453,10.1837815 13.1076609,10.114961 13.212509,9.98954404 C13.3173559,9.86412704 13.3571305,9.69671141 13.319897,9.53753879 C13.2411241,9.20100829 13.2000531,8.84974993 13.2000531,8.48839806 C13.2000531,5.94170709 15.2530006,3.8886328 17.8008344,3.8886328 Z" id="Shape" fill="#000000"></path>
            </g>
        </g>
    </g>
</svg>